 <svg
            width="120"
            height="38"
            viewBox="0 0 120 38"
            fill="none"
            xmlns="http://www.w3.org/2000/svg"
          >
            <path
              d="M68.2245 18.9037V5.62915H34.4009V18.6993V32.9598L111.499 32.9718V18.8917H68.2245V18.9037ZM35.2185 6.45881H67.3949V18.9037H35.2185V6.45881ZM110.681 32.1542H35.2185V19.7334H67.4069V23.1001V28.4989H68.3688V24.9638L70.1363 27.8736H70.5812L72.3608 24.9157L72.3728 28.4989H73.3227L73.3107 23.1001H72.481L70.3768 26.6833L68.2365 23.1001V19.7334H110.693V32.1542H110.681Z"
              fill="#0A0A0A"
            />
            <path
              d="M40.0643 10.7274C40.3529 10.5711 40.6895 10.4869 41.0623 10.4869C41.6274 10.4869 42.1084 10.7033 42.5052 11.1242L43.1545 10.5109C42.902 10.2224 42.5893 9.9939 42.2286 9.83759C41.8679 9.68128 41.4591 9.60913 41.0142 9.60913C40.4731 9.60913 39.9801 9.72937 39.5352 9.96985C39.0903 10.2103 38.7537 10.535 38.5012 10.9558C38.2487 11.3767 38.1284 11.8576 38.1284 12.3867C38.1284 12.9157 38.2487 13.3967 38.5012 13.8175C38.7537 14.2384 39.0903 14.5751 39.5352 14.8035C39.9801 15.044 40.4731 15.1642 41.0142 15.1642C41.4591 15.1642 41.8559 15.0921 42.2286 14.9358C42.6014 14.7795 42.902 14.563 43.1545 14.2624L42.5052 13.6492C42.1084 14.07 41.6394 14.2865 41.0623 14.2865C40.6895 14.2865 40.3649 14.2023 40.0643 14.046C39.7757 13.8897 39.5473 13.6612 39.3789 13.3727C39.2106 13.0841 39.1264 12.7594 39.1264 12.3987C39.1264 12.038 39.2106 11.7133 39.3789 11.4248C39.5352 11.1121 39.7637 10.8837 40.0643 10.7274Z"
              fill="#0A0A0A"
            />
            <path
              d="M49.2866 12.7473H51.8958V11.9176H49.2866V10.5228H52.2204V9.68115H48.2886V15.0799H52.3287V14.2383H49.2866V12.7473Z"
              fill="#0A0A0A"
            />
            <path
              d="M61.3709 10.0178C60.926 9.78937 60.409 9.68115 59.8318 9.68115H57.4751V15.0799H59.8318C60.409 15.0799 60.914 14.9717 61.3709 14.7433C61.8158 14.5148 62.1645 14.2022 62.417 13.7934C62.6695 13.3846 62.7897 12.9156 62.7897 12.3745C62.7897 11.8455 62.6695 11.3645 62.417 10.9557C62.1645 10.5469 61.8158 10.2343 61.3709 10.0178ZM61.5272 13.3485C61.3709 13.625 61.1304 13.8415 60.8298 13.9978C60.5292 14.1541 60.1805 14.2262 59.7837 14.2262H58.4731V10.5228H59.7837C60.1805 10.5228 60.5292 10.595 60.8298 10.7513C61.1304 10.9076 61.3589 11.124 61.5272 11.4006C61.6835 11.6771 61.7677 12.0018 61.7677 12.3745C61.7677 12.7473 61.6955 13.0719 61.5272 13.3485Z"
              fill="#0A0A0A"
            />
            <path
              d="M40.0643 24.1461C40.3529 23.9898 40.6895 23.9056 41.0623 23.9056C41.6274 23.9056 42.1084 24.122 42.5052 24.5429L43.1545 23.9296C42.902 23.6411 42.5893 23.4126 42.2286 23.2563C41.8679 23.1 41.4591 23.0278 41.0142 23.0278C40.4731 23.0278 39.9801 23.1481 39.5352 23.3886C39.0903 23.629 38.7537 23.9537 38.5012 24.3745C38.2487 24.7954 38.1284 25.2763 38.1284 25.8054C38.1284 26.3344 38.2487 26.8154 38.5012 27.2362C38.7537 27.6571 39.0903 27.9938 39.5352 28.2222C39.9801 28.4627 40.4731 28.5829 41.0142 28.5829C41.4591 28.5829 41.8559 28.5108 42.2286 28.3545C42.6014 28.1982 42.902 27.9817 43.1545 27.6811L42.5052 27.0679C42.1084 27.4888 41.6394 27.7052 41.0623 27.7052C40.6895 27.7052 40.3649 27.621 40.0643 27.4647C39.7757 27.3084 39.5473 27.0799 39.3789 26.7914C39.2106 26.5028 39.1264 26.1781 39.1264 25.8174C39.1264 25.4567 39.2106 25.132 39.3789 24.8435C39.5352 24.5308 39.7637 24.3024 40.0643 24.1461Z"
              fill="#0A0A0A"
            />
            <path
              d="M51.7155 23.3766C51.2706 23.1361 50.7776 23.0159 50.2245 23.0159C49.6714 23.0159 49.1784 23.1361 48.7335 23.3766C48.2886 23.6171 47.9399 23.9417 47.6874 24.3746C47.4349 24.7954 47.3147 25.2764 47.3147 25.7934C47.3147 26.3225 47.4349 26.7914 47.6874 27.2123C47.9399 27.6331 48.2886 27.9698 48.7335 28.2103C49.1784 28.4507 49.6714 28.571 50.2245 28.571C50.7776 28.571 51.2706 28.4507 51.7155 28.2103C52.1604 27.9698 52.5091 27.6451 52.7616 27.2243C53.0141 26.8034 53.1343 26.3225 53.1343 25.7934C53.1343 25.2644 53.0141 24.7834 52.7616 24.3626C52.5091 23.9537 52.1604 23.6171 51.7155 23.3766ZM51.8838 26.7674C51.7155 27.0559 51.487 27.2844 51.2105 27.4407C50.9219 27.597 50.5973 27.6812 50.2365 27.6812C49.8758 27.6812 49.5512 27.597 49.2626 27.4407C48.974 27.2844 48.7456 27.0559 48.5892 26.7674C48.4209 26.4788 48.3367 26.1541 48.3367 25.7934C48.3367 25.4327 48.4209 25.1081 48.5892 24.8195C48.7576 24.5309 48.974 24.3024 49.2626 24.1461C49.5512 23.9898 49.8758 23.9056 50.2365 23.9056C50.5973 23.9056 50.9219 23.9898 51.2105 24.1461C51.4991 24.3024 51.7275 24.5309 51.8838 24.8195C52.0522 25.1081 52.1363 25.4327 52.1363 25.7934C52.1243 26.1541 52.0401 26.4788 51.8838 26.7674Z"
              fill="#0A0A0A"
            />
            <path
              d="M62.393 23.1001L60.2768 26.6712L58.1365 23.1001H57.3188V28.4989H58.2687V24.9638L60.0483 27.8857H60.4932L62.2607 24.9157L62.2728 28.4989H63.2227L63.2106 23.1001H62.393Z"
              fill="#0A0A0A"
            />
            <path
              d="M81.5352 27.6572H78.4811V26.1662H81.0904V25.3486H78.4811V23.9418H81.427V23.1001H77.4832V28.4989H81.5352V27.6572Z"
              fill="#0A0A0A"
            />
            <path
              d="M86.7055 26.9237H87.9199C88.0161 26.9237 88.0763 26.9237 88.1244 26.9117L89.2306 28.4869H90.3127L89.0743 26.7193C89.447 26.575 89.7236 26.3586 89.928 26.058C90.1203 25.7694 90.2286 25.4207 90.2286 25.0119C90.2286 24.6151 90.1324 24.2785 89.952 23.9899C89.7716 23.7013 89.4951 23.4849 89.1584 23.3286C88.8097 23.1722 88.4009 23.1001 87.932 23.1001H85.7075V28.4989H86.7055V26.9237V26.9237ZM86.7055 23.9418H87.8718C88.3047 23.9418 88.6414 24.038 88.8698 24.2183C89.0983 24.3987 89.2065 24.6632 89.2065 25.0119C89.2065 25.3606 89.0983 25.6251 88.8698 25.8055C88.6414 25.9979 88.3167 26.0821 87.8718 26.0821H86.7055V23.9418Z"
              fill="#0A0A0A"
            />
            <path
              d="M95.9039 28.2104C96.3488 28.4509 96.8418 28.5711 97.3828 28.5711C97.8277 28.5711 98.2245 28.499 98.5973 28.3426C98.97 28.1863 99.2706 27.9699 99.5231 27.6693L98.8738 27.0561C98.477 27.4769 98.0081 27.6933 97.4309 27.6933C97.0582 27.6933 96.7335 27.6092 96.4329 27.4529C96.1444 27.2965 95.9159 27.0681 95.7476 26.7795C95.5792 26.4909 95.4951 26.1663 95.4951 25.8056C95.4951 25.4448 95.5792 25.1202 95.7476 24.8316C95.9159 24.543 96.1444 24.3146 96.4329 24.1583C96.7215 24.002 97.0582 23.9178 97.4309 23.9178C97.9961 23.9178 98.477 24.1342 98.8738 24.5551L99.5231 23.9418C99.2706 23.6533 98.958 23.4248 98.5973 23.2685C98.2365 23.1122 97.8277 23.04 97.3828 23.04C96.8418 23.04 96.3488 23.1603 95.9039 23.4008C95.459 23.6412 95.1223 23.9659 94.8698 24.3867C94.6173 24.8076 94.4971 25.2885 94.4971 25.8176C94.4971 26.3466 94.6173 26.8276 94.8698 27.2485C95.1223 27.6452 95.459 27.9819 95.9039 28.2104Z"
              fill="#0A0A0A"
            />
            <path
              d="M107.748 27.6572H104.706V26.1662H107.315V25.3486H104.706V23.9418H107.639V23.1001H103.696V28.4989H107.748V27.6572Z"
              fill="#0A0A0A"
            />
            <path
              d="M21.3788 18.8555L27.2585 12.9758L19.9238 5.64111L11.0501 14.4908L6.19238 19.3245L19.8156 32.9477L27.6553 25.108L21.3788 18.8555ZM9.16232 19.3485L19.9238 8.62308L24.2886 12.9878L19.8998 17.3766L18.1804 15.6571L16.6894 17.1481L18.4088 18.8676L14.6333 22.6431L16.1242 24.1341L19.8998 20.3585L24.6733 25.1321L19.8036 30.0018L9.16232 19.3485Z"
              fill="url(#paint0_linear_2294_1323)"
            />
            <defs>
              <linearGradient
                id="paint0_linear_2294_1323"
                x1="6.1821"
                y1="19.3064"
                x2="27.6388"
                y2="19.3064"
                gradientUnits="userSpaceOnUse"
              >
                <stop stopColor="#413BBC" />
                <stop offset="0.47" stopColor="#383365" />
                <stop offset="1" stopColor="#0A0A0A" />
              </linearGradient>
            </defs>
          </svg>