<svg width="192" height="50" viewBox="0 0 192 50" fill="none" xmlns="http://www.w3.org/2000/svg">
<g clip-path="url(#clip0_374_428)">
<path d="M113.004 24.2592V0H51.3904V49.9687L191.818 50V24.2592H113.004ZM52.8819 1.52842H111.489V24.2592H52.8819V1.52842ZM190.327 48.4794H52.8819V25.7642H111.489V41.7911H113.229V35.3452L116.462 40.6731H117.276L120.504 35.2592V41.8028H122.229V31.9326H120.726L116.89 38.4724L112.996 31.9326V25.7642H190.327V48.4794Z" fill="#070707"/>
<path d="M61.7066 9.30343C62.2623 9.00218 62.8861 8.85003 63.5175 8.86171C64.0125 8.85315 64.5035 8.95172 64.9571 9.15071C65.4107 9.3497 65.8163 9.64444 66.1462 10.0149L67.3146 8.9008C66.8549 8.36593 66.2776 7.94571 65.6283 7.67338C64.9292 7.38554 64.1796 7.24197 63.4241 7.2512C62.4861 7.23781 61.5602 7.46378 60.733 7.90792C59.952 8.33338 59.3026 8.96627 58.8559 9.73733C58.3912 10.5261 58.1527 11.4284 58.1666 12.3446C58.1523 13.2599 58.388 14.1616 58.8482 14.9519C59.2975 15.7173 59.9483 16.3436 60.7291 16.7618C61.5563 17.2059 62.4822 17.4319 63.4202 17.4185C64.1782 17.4276 64.9304 17.2841 65.6322 16.9963C66.2851 16.7265 66.8655 16.306 67.3262 15.7689L66.1579 14.6431C65.8303 15.0177 65.4256 15.3165 64.9718 15.519C64.5179 15.7214 64.0258 15.8227 63.5292 15.8158C62.8974 15.8263 62.2736 15.6728 61.7183 15.3702C61.1939 15.0793 60.7619 14.6457 60.4721 14.1193C60.1783 13.5687 60.0245 12.9537 60.0245 12.329C60.0245 11.7043 60.1783 11.0893 60.4721 10.5387C60.7615 10.02 61.189 9.59229 61.7066 9.30343Z" fill="#070707"/>
<path d="M78.5148 13.0052H83.2621V11.4964H78.5148V8.93205H83.8657V7.39581H76.6884V17.2621H84.0604V15.7259H78.5148V13.0052Z" fill="#070707"/>
<path d="M100.522 8.00561C99.65 7.58603 98.6927 7.37591 97.7258 7.3919H93.442V17.2621H97.7258C98.693 17.2806 99.6508 17.0703 100.522 16.6484C101.307 16.2668 101.966 15.6654 102.419 14.9167C102.876 14.1329 103.109 13.2374 103.092 12.329C103.111 11.4192 102.878 10.5221 102.419 9.7373C101.964 8.9899 101.306 8.38892 100.522 8.00561ZM100.81 14.1115C100.513 14.6192 100.073 15.0273 99.5445 15.2842C98.9511 15.571 98.2986 15.713 97.6402 15.6985H95.2529V8.9555H97.6402C98.2967 8.93374 98.9492 9.06766 99.5445 9.3464C100.073 9.60329 100.513 10.0113 100.81 10.5191C101.099 11.0685 101.25 11.6804 101.25 12.3016C101.25 12.9228 101.099 13.5347 100.81 14.0841V14.1115Z" fill="#070707"/>
<path d="M61.7066 33.8441C62.2619 33.5415 62.8857 33.388 63.5175 33.3985C64.0139 33.3926 64.5057 33.4943 64.9594 33.6967C65.4131 33.8991 65.8179 34.1974 66.1462 34.5712L67.3145 33.4571C66.8559 32.9212 66.2783 32.5008 65.6283 32.2297C64.9292 31.9418 64.1796 31.7983 63.424 31.8075C62.4861 31.7941 61.5601 32.0201 60.733 32.4642C59.9508 32.8834 59.2977 33.5093 58.8442 34.2741C58.395 35.0698 58.1589 35.9688 58.1589 36.8833C58.1589 37.7979 58.395 38.6969 58.8442 39.4926C59.2946 40.2571 59.9452 40.8831 60.7252 41.3025C61.5523 41.7466 62.4783 41.9726 63.4162 41.9592C64.1747 41.969 64.9273 41.824 65.6283 41.5331C66.281 41.2647 66.8614 40.8455 67.3223 40.3096L66.154 39.1799C65.8268 39.5551 65.4223 39.8543 64.9683 40.0568C64.5144 40.2593 64.022 40.3603 63.5253 40.3526C62.8935 40.3631 62.2697 40.2096 61.7144 39.907C61.1928 39.6171 60.7625 39.1865 60.4721 38.6639C60.1782 38.1132 60.0245 37.4982 60.0245 36.8736C60.0245 36.2489 60.1782 35.6339 60.4721 35.0832C60.7604 34.5627 61.188 34.1335 61.7066 33.8441Z" fill="#070707"/>
<path d="M82.9388 32.4486C82.1 32.0171 81.1709 31.792 80.2283 31.792C79.2857 31.792 78.3567 32.0171 77.5178 32.4486C76.7305 32.867 76.074 33.4961 75.6213 34.2663C75.1697 35.0584 74.9322 35.9551 74.9322 36.8677C74.9322 37.7803 75.1697 38.6771 75.6213 39.4692C76.0751 40.2384 76.7313 40.8673 77.5178 41.2868C78.3567 41.7184 79.2857 41.9434 80.2283 41.9434C81.1709 41.9434 82.1 41.7184 82.9388 41.2868C83.7241 40.8691 84.3801 40.2431 84.8354 39.477C85.2872 38.6821 85.5248 37.7828 85.5248 36.8677C85.5248 35.9526 85.2872 35.0533 84.8354 34.2585C84.3801 33.4923 83.7241 32.8663 82.9388 32.4486ZM83.2348 38.6522C82.944 39.1708 82.517 39.5994 82.0003 39.8913C81.4558 40.1839 80.8478 40.337 80.2303 40.337C79.6127 40.337 79.0047 40.1839 78.4603 39.8913C77.9418 39.6044 77.5119 39.1798 77.218 38.6639C76.9241 38.1154 76.7703 37.5023 76.7703 36.8794C76.7703 36.2566 76.9241 35.6435 77.218 35.095C77.5069 34.5736 77.936 34.1442 78.4564 33.8558C79.0008 33.5633 79.6088 33.4102 80.2264 33.4102C80.8439 33.4102 81.4519 33.5633 81.9964 33.8558C82.5147 34.1456 82.9422 34.5747 83.2309 35.095C83.5247 35.6435 83.6785 36.2566 83.6785 36.8794C83.6785 37.5023 83.5247 38.1154 83.2309 38.6639L83.2348 38.6522Z" fill="#070707"/>
<path d="M102.372 31.9326L98.5397 38.4763L94.6337 31.9326H93.1304V41.8028H94.8712V35.3452L98.1036 40.6731H98.9175L102.15 35.2592L102.162 41.8028H103.891L103.875 31.9326H102.372Z" fill="#070707"/>
<path d="M137.238 40.2666H131.689V37.5459H136.44V36.0371H131.689V33.4728H137.04V31.9326H129.866V41.8028H137.238V40.2666Z" fill="#070707"/>
<path d="M146.674 38.9258H148.894C149.024 38.9341 149.154 38.9341 149.284 38.9258L151.293 41.8185H153.26L150.997 38.574C151.628 38.3475 152.172 37.9294 152.555 37.3778C152.924 36.8077 153.113 36.1385 153.096 35.4585C153.112 34.7971 152.936 34.1453 152.59 33.5822C152.235 33.0423 151.728 32.6205 151.134 32.3704C150.43 32.0751 149.672 31.9313 148.91 31.9482H144.848V41.7911H146.674V38.9258ZM146.674 33.4845H148.809C149.454 33.4384 150.095 33.6179 150.623 33.9926C150.831 34.1703 150.994 34.3936 151.101 34.6453C151.207 34.8969 151.255 35.1699 151.239 35.4429C151.254 35.717 151.207 35.9911 151.1 36.2439C150.994 36.4967 150.83 36.7215 150.623 36.9009C150.097 37.2802 149.455 37.4627 148.809 37.4169H146.674V33.4845Z" fill="#070707"/>
<path d="M163.42 41.2868C164.173 41.6755 165 41.8972 165.845 41.937C166.69 41.9767 167.534 41.8337 168.319 41.5175C168.972 41.2491 169.553 40.8299 170.014 40.294L168.845 39.1643C168.519 39.5394 168.115 39.8386 167.662 40.0411C167.208 40.2436 166.717 40.3446 166.22 40.337C165.587 40.3474 164.962 40.1939 164.406 39.8913C163.882 39.6048 163.449 39.1769 163.156 38.6561C162.862 38.1054 162.708 37.4904 162.708 36.8658C162.708 36.2411 162.862 35.6261 163.156 35.0754C163.449 34.5557 163.882 34.1291 164.406 33.8441C164.962 33.5415 165.587 33.388 166.22 33.3985C166.716 33.3927 167.207 33.4944 167.66 33.6968C168.114 33.8992 168.518 34.1975 168.845 34.5712L170.014 33.4571C169.562 32.9179 168.991 32.4922 168.347 32.2141C167.648 31.9255 166.898 31.7819 166.142 31.7919C165.205 31.7785 164.279 32.0045 163.451 32.4486C162.67 32.8689 162.017 33.4945 161.563 34.2585C161.115 35.0545 160.879 35.9534 160.879 36.8677C160.879 37.7821 161.115 38.6809 161.563 39.477C162.005 40.24 162.647 40.8661 163.42 41.2868Z" fill="#070707"/>
<path d="M184.995 40.2666H179.446V37.5459H184.193V36.0371H179.446V33.4728H184.797V31.9326H177.619V41.8028H184.995V40.2666Z" fill="#070707"/>
<path d="M27.6696 24.1772L38.3714 13.4391L25.0331 0.0351868L8.85584 16.2223L0 25.0645L24.8073 49.9609L39.0841 35.6305L27.6696 24.1772ZM5.42099 25.0723L25.0331 5.46479L32.9738 13.4391L24.9669 21.4643L21.8514 18.3371L19.1254 21.0734L22.2409 24.2006L15.3751 31.0883L18.0817 33.805L24.9669 26.8939L33.6709 35.6305L24.8073 44.5274L5.42099 25.0723Z" fill="url(#paint0_linear_374_428)"/>
</g>
<defs>
<linearGradient id="paint0_linear_374_428" x1="0" y1="24.998" x2="39.0841" y2="24.998" gradientUnits="userSpaceOnUse">
<stop stop-color="#595993"/>
<stop offset="0.47" stop-color="#393366"/>
<stop offset="1" stop-color="#070707"/>
</linearGradient>
<clipPath id="clip0_374_428">
<rect width="191.818" height="50" fill="white"/>
</clipPath>
</defs>
</svg>
