<svg
            width="220"
            height="221"
            viewBox="0 0 220 221"
            fill="none"
            xmlns="http://www.w3.org/2000/svg">
            <path
                d="M110 220C170.75 220 220 170.846 220 110C220 49.1535 170.533 0 110 0C49.2505 0 0 49.1535 0 110C0 170.846 49.2505 220 110 220Z"
                fill="#F0EDFA"
            />
            <path
                d="M191.032 71.4427C194.827 71.4427 197.903 68.3638 197.903 64.5657C197.903 60.7677 194.827 57.6888 191.032 57.6888C187.237 57.6888 184.161 60.7677 184.161 64.5657C184.161 68.3638 187.237 71.4427 191.032 71.4427Z"
                fill="#EAEEF9"
            />
            <path
                d="M8.52028 108.632C11.0168 108.632 13.0406 106.606 13.0406 104.108C13.0406 101.609 11.0168 99.5833 8.52028 99.5833C6.0238 99.5833 4 101.609 4 104.108C4 106.606 6.0238 108.632 8.52028 108.632Z"
                fill="#EAEEF9"
            />
            <path
                d="M29.2996 189.971C31.7961 189.971 33.8198 187.946 33.8198 185.447C33.8198 182.948 31.7961 180.923 29.2996 180.923C26.8031 180.923 24.7793 182.948 24.7793 185.447C24.7793 187.946 26.8031 189.971 29.2996 189.971Z"
                fill="#C5B8EA"
            />
            <path
                d="M45.4609 189.971L108.893 170.095V88.6035L45.4609 108.327V189.971Z"
                fill="#8C9098"
            />
            <path
                opacity="0.4"
                d="M172.326 189.971L108.894 170.095V88.6035L172.326 108.327V189.971Z"
                fill="#8C9098"
            />
            <path
                d="M108.893 210L45.4609 190.124V108.632L108.893 128.508V210Z"
                fill="#C5B8EA"
            />
            <path
                d="M108.894 210L172.326 190.124V108.632L108.894 128.508V210Z"
                fill="#B5A7DF"
            />
            <path
                opacity="0.09"
                d="M94.5211 195.628L45.4609 190.124V108.633L108.893 128.509L94.5211 195.628Z"
                fill="url(#paint0_linear_10390_33467)"
            />
            <path
                opacity="0.2"
                d="M123.265 181.256L172.326 190.124V108.633L108.894 128.509L123.265 181.256Z"
                fill="url(#paint1_linear_10390_33467)"
            />
            <path
                d="M108.894 88.6031L79.0699 66.2808L14.5781 87.9915L45.4615 108.326L108.894 88.6031Z"
                fill="white"
            />
            <path
                d="M108.894 88.6031L138.717 66.2808L203.209 87.9915L172.326 108.326L108.894 88.6031Z"
                fill="white"
            />
            <path
                d="M45.4615 108.633L108.894 128.509L77.2533 148.69L14.5781 127.897L45.4615 108.633Z"
                fill="white"
            />
            <path
                d="M172.326 108.633L108.894 128.509L140.534 148.69L203.209 127.897L172.326 108.633Z"
                fill="white"
            />
            <path
                d="M145.408 7.6036C145.387 11.1498 142.087 13.3212 137.902 12.1889C133.496 11.4378 130.377 10.6636 130.176 7.49858C130.277 4.2527 133.819 2.98232 137.964 1.55025C142.934 -0.424661 145.127 4.13822 145.408 7.6036Z"
                fill="#C5B8EA"
            />
            <path
                d="M116.935 18.4478C119.168 20.7467 123.876 21.417 126.17 17.9055C128.686 14.013 130.839 11.1831 128.526 8.58388C126.293 6.28504 124.119 7.83275 119.149 9.80766C115.165 11.8404 114.319 15.9295 116.935 18.4478Z"
                fill="#C5B8EA"
            />
            <path
                d="M127.239 3.77956C129.271 2.91336 131.706 3.54884 132.792 5.18919C133.255 5.70903 133.798 6.5292 133.959 7.12987C135.688 11.1729 135.144 15.1812 132.81 16.1282C130.255 17.4564 126.734 15.1806 125.386 11.357C125.065 10.1557 124.904 9.555 124.663 8.65399C124.401 6.47079 125.206 4.64576 127.239 3.77956C127.239 3.77956 127.541 3.69872 127.239 3.77956Z"
                fill="#8E76D7"
            />
            <path
                d="M33.8192 58.8621H29.8848V54.9277H26.5125V58.8621H22.5781V62.3468H26.5125V66.2812H29.8848V62.3468H33.8192V58.8621Z"
                fill="#C5B8EA"
            />
            <path
                d="M42.4618 157.574H38.5274V153.64H35.1551V157.574H31.2207V161.059H35.1551V164.993H38.5274V161.059H42.4618V157.574Z"
                fill="#C5B8EA"
            />
            <path
                d="M214.453 157.796L209.639 155.366L212.07 150.552L207.944 148.469L205.513 153.283L200.699 150.852L198.547 155.116L203.361 157.546L200.93 162.36L205.056 164.443L207.487 159.63L212.3 162.06L214.453 157.796Z"
                fill="#C5B8EA"
            />
            <path
                d="M129.592 10.3686C138.478 34.4855 141.127 39.844 141.996 63.6078C141.662 69.0322 141.454 74.9308 138.897 79.6804C135.482 86.9463 127.128 91.9782 119.235 92.0597C111.105 92.205 103.134 87.2267 99.5457 79.5501C97.0214 74.8912 97.1017 68.5186 100.564 64.2887C104.328 60.232 110.951 59.2205 115.714 61.7553C120.955 64.1625 124.082 69.1678 125.241 74.4465C126.399 79.7252 125.89 85.4505 124.476 90.656C121.519 103.317 119.069 103.929 111.816 125.364"
                stroke="#8E76D7"
                strokeWidth="2"
                strokeMiterlimit="11.2824"
                strokeDasharray="8 8"
            />
            <circle cx="153" cy="174.428" r="26" fill="white" />
            <path
                d="M195.573 220.428C194.471 220.428 193.369 219.988 192.488 218.996L174.091 200.599L173.43 201.039C167.481 205.446 160.54 207.759 153.49 207.759C145.007 207.759 136.525 204.344 130.245 198.396C123.635 192.116 120 183.634 120 174.38C120 155.982 134.982 141 153.38 141C165.938 141 176.955 147.61 182.904 158.847C188.742 169.973 187.971 182.973 180.811 193.438L180.37 194.099L198.878 212.607C200.75 214.479 200.31 216.352 199.979 217.344C199.098 219.106 197.335 220.428 195.573 220.428ZM153.38 150.144C139.94 150.144 129.144 161.05 129.144 174.38C129.144 189.582 141.592 198.726 153.71 198.726C161.091 198.726 167.811 195.421 172.548 189.472C178.387 182.201 179.378 172.397 175.302 163.914C171.116 155.432 162.744 150.144 153.38 150.144Z"
                fill="#8E76D7"
            />
            <circle cx="153.828" cy="174.428" r="25" fill="white" />
            <path
                d="M150.73 160.379H157.916L156 180.34H152.647L150.73 160.379Z"
                fill="#D92D20"
            />
            <ellipse
                cx="154.323"
                cy="186.727"
                rx="3.59284"
                ry="3.19364"
                fill="#D92D20"
            />
            <defs>
                <linearGradient
                    id="paint0_linear_10390_33467"
                    x1="59.682"
                    y1="164.405"
                    x2="74.9209"
                    y2="121.365"
                    gradientUnits="userSpaceOnUse">
                    <stop
                        offset="0.00289017"
                        stopColor="#8C9098"
                        stopOpacity="0"
                    />
                    <stop offset="1" stopColor="#8C9098" />
                </linearGradient>
                <linearGradient
                    id="paint1_linear_10390_33467"
                    x1="143.127"
                    y1="176.162"
                    x2="144.325"
                    y2="121.544"
                    gradientUnits="userSpaceOnUse">
                    <stop
                        offset="0.00289017"
                        stopColor="#314F91"
                        stopOpacity="0"
                    />
                    <stop offset="1" stopColor="#324264" />
                </linearGradient>
            </defs>
        </svg>