<svg
            width="322"
            height="280"
            viewBox="0 0 322 221"
            fill="none"
            xmlns="http://www.w3.org/2000/svg">
            <path
                d="M161 235C221.965 235 271.39 185.846 271.39 125C271.39 64.1535 221.747 15 161 15C100.035 15 50.6099 64.1535 50.6099 125C50.6099 185.846 100.035 235 161 235Z"
                fill="#F0EDFA"
            />
            <path
                d="M251.245 154.301C255.411 154.301 258.787 150.925 258.787 146.759C258.787 142.594 255.411 139.218 251.245 139.218C247.08 139.218 243.704 142.594 243.704 146.759C243.704 150.925 247.08 154.301 251.245 154.301Z"
                fill="white"
            />
            <path
                d="M252.282 54.8696C255.126 54.8696 257.432 52.5636 257.432 49.7191C257.432 46.8746 255.126 44.5686 252.282 44.5686C249.437 44.5686 247.131 46.8746 247.131 49.7191C247.131 52.5636 249.437 54.8696 252.282 54.8696Z"
                fill="#C5B8EA"
            />
            <path
                d="M65.7603 84.117C68.6048 84.117 70.9108 81.8111 70.9108 78.9665C70.9108 76.122 68.6048 73.816 65.7603 73.816C62.9158 73.816 60.6098 76.122 60.6098 78.9665C60.6098 81.8111 62.9158 84.117 65.7603 84.117Z"
                fill="white"
            />
            <path
                d="M74.3054 223.448C79.5881 223.448 83.8706 219.166 83.8706 213.883C83.8706 208.6 79.5881 204.318 74.3054 204.318C69.0227 204.318 64.7402 208.6 64.7402 213.883C64.7402 219.166 69.0227 223.448 74.3054 223.448Z"
                fill="#C5B8EA"
            />
            <g filter="url(#filter0_d_2135_41190)">
                <path
                    d="M88.6537 211H233.522C239.369 211 244.566 205.808 244.566 199.966V50.034C244.566 44.1925 239.369 39 233.522 39H88.6537C82.807 39 77.6099 44.1925 77.6099 50.034V199.966C77.6099 205.808 82.807 211 88.6537 211Z"
                    fill="white"
                />
            </g>
            <path
                d="M163.565 140.214C183.91 140.214 200.403 123.721 200.403 103.376C200.403 83.0309 183.91 66.5381 163.565 66.5381C143.22 66.5381 126.727 83.0309 126.727 103.376C126.727 123.721 143.22 140.214 163.565 140.214Z"
                fill="#8E76D7"
            />
            <path
                fillRule="evenodd"
                clipRule="evenodd"
                d="M163.012 100.876C167.569 100.876 171.263 97.1826 171.263 92.6262C171.263 88.0698 167.569 84.3762 163.012 84.3762C158.456 84.3762 154.762 88.0698 154.762 92.6262C154.762 97.1826 158.456 100.876 163.012 100.876ZM177.9 111.063C178.729 113.065 179.156 115.21 179.156 117.377H162.656H146.156C146.156 115.21 146.582 113.065 147.412 111.063C148.241 109.061 149.456 107.242 150.988 105.71C152.521 104.178 154.34 102.962 156.341 102.133C158.343 101.304 160.489 100.877 162.656 100.877C164.823 100.877 166.968 101.304 168.97 102.133C170.972 102.962 172.791 104.178 174.323 105.71C175.855 107.242 177.071 109.061 177.9 111.063Z"
                fill="white"
            />
            <path
                d="M208.228 165.591H116.303C114.004 165.591 112.281 163.869 112.281 161.573C112.281 159.277 114.004 157.555 116.303 157.555H207.654C209.952 157.555 211.675 159.277 211.675 161.573C212.25 163.869 210.526 165.591 208.228 165.591Z"
                fill="#C5B8EA"
            />
            <path
                d="M180.648 181.068H143.877C141.579 181.068 139.856 179.346 139.856 177.05C139.856 174.754 141.579 173.032 143.877 173.032H180.073C182.371 173.032 184.095 174.754 184.095 177.05C184.669 178.772 182.946 181.068 180.648 181.068Z"
                fill="#C5B8EA"
            />
            <g filter="url(#filter1_i_2135_41190)">
                <circle cx="232.631" cy="50.8008" r="22.8008" fill="#D92D20" />
            </g>
            <path
                d="M229.805 37.9877H236.359L234.611 56.1921H231.553L229.805 37.9877Z"
                fill="white"
            />
            <ellipse
                cx="233.082"
                cy="62.0176"
                rx="3.2768"
                ry="2.91271"
                fill="white"
            />
            <defs>
                <filter
                    id="filter0_d_2135_41190"
                    x="0.976593"
                    y="0.683334"
                    width="320.222"
                    height="325.267"
                    filterUnits="userSpaceOnUse"
                    colorInterpolationFilters="sRGB">
                    <feFlood floodOpacity="0" result="BackgroundImageFix" />
                    <feColorMatrix
                        in="SourceAlpha"
                        type="matrix"
                        values="0 0 0 0 0 0 0 0 0 0 0 0 0 0 0 0 0 0 127 0"
                        result="hardAlpha"
                    />
                    <feOffset dy="38.3167" />
                    <feGaussianBlur stdDeviation="38.3167" />
                    <feColorMatrix
                        type="matrix"
                        values="0 0 0 0 0.397708 0 0 0 0 0.47749 0 0 0 0 0.575 0 0 0 0.18 0"
                    />
                    <feBlend
                        mode="normal"
                        in2="BackgroundImageFix"
                        result="effect1_dropShadow_2135_41190"
                    />
                    <feBlend
                        mode="normal"
                        in="SourceGraphic"
                        in2="effect1_dropShadow_2135_41190"
                        result="shape"
                    />
                </filter>
                <filter
                    id="filter1_i_2135_41190"
                    x="209.83"
                    y="27"
                    width="46.6017"
                    height="46.6017"
                    filterUnits="userSpaceOnUse"
                    colorInterpolationFilters="sRGB">
                    <feFlood floodOpacity="0" result="BackgroundImageFix" />
                    <feBlend
                        mode="normal"
                        in="SourceGraphic"
                        in2="BackgroundImageFix"
                        result="shape"
                    />
                    <feColorMatrix
                        in="SourceAlpha"
                        type="matrix"
                        values="0 0 0 0 0 0 0 0 0 0 0 0 0 0 0 0 0 0 127 0"
                        result="hardAlpha"
                    />
                    <feMorphology
                        radius="2"
                        operator="dilate"
                        in="SourceAlpha"
                        result="effect1_innerShadow_2135_41190"
                    />
                    <feOffset dx="3" dy="-4" />
                    <feGaussianBlur stdDeviation="1.5" />
                    <feComposite
                        in2="hardAlpha"
                        operator="arithmetic"
                        k2="-1"
                        k3="1"
                    />
                    <feColorMatrix
                        type="matrix"
                        values="0 0 0 0 0.768627 0 0 0 0 0.156863 0 0 0 0 0.109804 0 0 0 1 0"
                    />
                    <feBlend
                        mode="normal"
                        in2="shape"
                        result="effect1_innerShadow_2135_41190"
                    />
                </filter>
            </defs>
        </svg>