<svg width="20" height="20" viewBox="0 0 20 20" fill="none" xmlns="http://www.w3.org/2000/svg">
    <path d="M14.165 12.8L12 14.965L14.165 17.13" stroke="currentColor" stroke-width="2"
        stroke-linecap="round" />
    <path d="M18.3334 18.3335V16.6668C18.3334 15.7463 17.5872 15.0001 16.6667 15.0001H12.5"
        stroke="currentColor" stroke-width="2" stroke-linecap="round" />
    <path
        d="M10.6666 18.3335H3.33319C2.41271 18.3335 1.6665 17.5873 1.6665 16.6668V3.33331C1.6665 2.41283 2.41271 1.66663 3.33319 1.66663H16.6667C17.5872 1.66663 18.3334 2.41283 18.3334 3.33331V11.6667"
        stroke="currentColor" stroke-width="2" stroke-miterlimit="16" stroke-linecap="round" />
    <path
        d="M13.3333 5C13.3333 5.88407 12.9821 6.73192 12.3569 7.35705C11.7318 7.98218 10.8839 8.33337 9.99988 8.33337C9.11581 8.33337 8.26796 7.98218 7.64283 7.35705C7.0177 6.73192 6.6665 5.88407 6.6665 5"
        stroke="currentColor" stroke-width="2" stroke-linecap="round" stroke-linejoin="round" />
</svg>